<?xml version="1.0" encoding="UTF-8"?>
<!DOCTYPE svg PUBLIC "-//W3C//DTD SVG 1.1//EN" "http://www.w3.org/Graphics/SVG/1.1/DTD/svg11.dtd">
<svg version="1.2" width="253.81mm" height="107.11mm" viewBox="2270 4810 25381 10711" preserveAspectRatio="xMidYMid" fill-rule="evenodd" stroke-width="28.222" stroke-linejoin="round" xmlns="http://www.w3.org/2000/svg" xmlns:ooo="http://xml.openoffice.org/svg/export" xmlns:xlink="http://www.w3.org/1999/xlink" xmlns:presentation="http://sun.com/xmlns/staroffice/presentation" xmlns:smil="http://www.w3.org/2001/SMIL20/" xmlns:anim="urn:oasis:names:tc:opendocument:xmlns:animation:1.0" xml:space="preserve">
 <defs class="EmbeddedBulletChars">
  <g id="bullet-char-template-57356" transform="scale(0.00048828125,-0.00048828125)">
   <path d="M 580,1141 L 1163,571 580,0 -4,571 580,1141 Z"/>
  </g>
  <g id="bullet-char-template-57354" transform="scale(0.00048828125,-0.00048828125)">
   <path d="M 8,1128 L 1137,1128 1137,0 8,0 8,1128 Z"/>
  </g>
  <g id="bullet-char-template-10146" transform="scale(0.00048828125,-0.00048828125)">
   <path d="M 174,0 L 602,739 174,1481 1456,739 174,0 Z M 1358,739 L 309,1346 659,739 1358,739 Z"/>
  </g>
  <g id="bullet-char-template-10132" transform="scale(0.00048828125,-0.00048828125)">
   <path d="M 2015,739 L 1276,0 717,0 1260,543 174,543 174,936 1260,936 717,1481 1274,1481 2015,739 Z"/>
  </g>
  <g id="bullet-char-template-10007" transform="scale(0.00048828125,-0.00048828125)">
   <path d="M 0,-2 C -7,14 -16,27 -25,37 L 356,567 C 262,823 215,952 215,954 215,979 228,992 255,992 264,992 276,990 289,987 310,991 331,999 354,1012 L 381,999 492,748 772,1049 836,1024 860,1049 C 881,1039 901,1025 922,1006 886,937 835,863 770,784 769,783 710,716 594,584 L 774,223 C 774,196 753,168 711,139 L 727,119 C 717,90 699,76 672,76 641,76 570,178 457,381 L 164,-76 C 142,-110 111,-127 72,-127 30,-127 9,-110 8,-76 1,-67 -2,-52 -2,-32 -2,-23 -1,-13 0,-2 Z"/>
  </g>
  <g id="bullet-char-template-10004" transform="scale(0.00048828125,-0.00048828125)">
   <path d="M 285,-33 C 182,-33 111,30 74,156 52,228 41,333 41,471 41,549 55,616 82,672 116,743 169,778 240,778 293,778 328,747 346,684 L 369,508 C 377,444 397,411 428,410 L 1163,1116 C 1174,1127 1196,1133 1229,1133 1271,1133 1292,1118 1292,1087 L 1292,965 C 1292,929 1282,901 1262,881 L 442,47 C 390,-6 338,-33 285,-33 Z"/>
  </g>
  <g id="bullet-char-template-9679" transform="scale(0.00048828125,-0.00048828125)">
   <path d="M 813,0 C 632,0 489,54 383,161 276,268 223,411 223,592 223,773 276,916 383,1023 489,1130 632,1184 813,1184 992,1184 1136,1130 1245,1023 1353,916 1407,772 1407,592 1407,412 1353,268 1245,161 1136,54 992,0 813,0 Z"/>
  </g>
  <g id="bullet-char-template-8226" transform="scale(0.00048828125,-0.00048828125)">
   <path d="M 346,457 C 273,457 209,483 155,535 101,586 74,649 74,723 74,796 101,859 155,911 209,963 273,989 346,989 419,989 480,963 531,910 582,859 608,796 608,723 608,648 583,586 532,535 482,483 420,457 346,457 Z"/>
  </g>
  <g id="bullet-char-template-8211" transform="scale(0.00048828125,-0.00048828125)">
   <path d="M -4,459 L 1135,459 1135,606 -4,606 -4,459 Z"/>
  </g>
  <g id="bullet-char-template-61548" transform="scale(0.00048828125,-0.00048828125)">
   <path d="M 173,740 C 173,903 231,1043 346,1159 462,1274 601,1332 765,1332 928,1332 1067,1274 1183,1159 1299,1043 1357,903 1357,740 1357,577 1299,437 1183,322 1067,206 928,148 765,148 601,148 462,206 346,322 231,437 173,577 173,740 Z"/>
  </g>
 </defs>
 <g class="Page">
  <g class="Group">
   <g class="com.sun.star.drawing.ClosedBezierShape">
    <g id="id3">
     <rect class="BoundingBox" stroke="none" fill="none" x="2270" y="4810" width="3148" height="4055"/>
     <path fill="rgb(28,99,54)" stroke="none" d="M 3219,8863 C 2921,8863 2688,8788 2521,8636 2354,8485 2271,8257 2270,7954 2271,7831 2283,7708 2309,7584 L 2864,4965 3975,4965 3419,7584 C 3394,7713 3381,7805 3381,7862 3381,8031 3468,8116 3643,8116 3879,8116 4099,7967 4302,7669 4505,7371 4669,7017 4792,6606 4915,6195 4977,5840 4977,5542 4967,5568 4933,5587 4877,5600 4820,5613 4771,5620 4730,5620 4643,5620 4575,5578 4526,5496 4477,5414 4453,5324 4453,5227 4453,5103 4492,5003 4572,4926 4652,4849 4771,4811 4931,4811 5100,4811 5224,4873 5301,4999 5378,5125 5416,5286 5416,5481 5416,5943 5337,6438 5177,6964 5018,7491 4774,7939 4445,8309 4116,8678 3707,8863 3219,8863 Z"/>
    </g>
   </g>
   <g class="com.sun.star.drawing.ClosedBezierShape">
    <g id="id4">
     <rect class="BoundingBox" stroke="none" fill="none" x="5435" y="4895" width="3325" height="3970"/>
     <path fill="rgb(28,99,54)" stroke="none" d="M 6638,8863 C 6258,8863 5962,8764 5751,8567 5541,8369 5435,8060 5435,7638 5435,7284 5505,6894 5644,6467 5782,6041 6008,5673 6322,5362 6636,5051 7034,4896 7517,4896 8083,4896 8365,5142 8365,5635 8365,5923 8283,6188 8119,6429 7954,6670 7736,6864 7463,7011 7191,7157 6900,7240 6592,7261 6582,7415 6577,7518 6577,7569 6577,7821 6620,7991 6708,8081 6795,8171 6936,8216 7132,8216 7409,8216 7647,8152 7845,8024 8043,7895 8260,7700 8496,7438 L 8759,7438 C 8188,8388 7481,8863 6638,8863 Z M 6654,6891 C 6844,6881 7025,6814 7197,6691 7369,6568 7508,6411 7614,6221 7719,6031 7772,5831 7772,5620 7772,5410 7707,5304 7579,5304 7394,5304 7213,5466 7035,5790 6858,6113 6731,6480 6654,6891 Z"/>
    </g>
   </g>
   <g class="com.sun.star.drawing.ClosedBezierShape">
    <g id="id5">
     <rect class="BoundingBox" stroke="none" fill="none" x="8204" y="4965" width="3294" height="3854"/>
     <path fill="rgb(28,99,54)" stroke="none" d="M 9022,4965 L 10132,4965 10032,5443 C 10207,5289 10365,5171 10506,5089 10647,5007 10800,4965 10965,4965 11129,4965 11259,5022 11354,5135 11449,5248 11497,5384 11497,5543 11497,5692 11448,5823 11350,5936 11253,6049 11116,6106 10942,6106 10829,6106 10753,6079 10714,6025 10676,5971 10646,5893 10626,5790 10610,5723 10595,5674 10579,5643 10564,5613 10536,5597 10494,5597 10387,5597 10295,5619 10221,5663 10146,5706 10050,5782 9932,5890 L 9315,8818 8204,8818 9022,4965 Z"/>
    </g>
   </g>
  </g>
  <g class="Group">
   <g class="com.sun.star.drawing.ClosedBezierShape">
    <g id="id6">
     <rect class="BoundingBox" stroke="none" fill="none" x="10034" y="4810" width="8476" height="10711"/>
     <path fill="rgb(103,27,103)" stroke="none" d="M 12628,15520 C 12322,15520 12053,15495 11821,15445 11590,15396 11389,15276 11220,15086 11050,14896 10965,14603 10965,14206 10965,13652 11133,12909 11468,11975 11803,11041 12243,10103 12789,9161 12376,9186 12049,9248 11809,9347 11569,9446 11412,9599 11338,9806 11371,9806 11406,9847 11443,9930 11480,10012 11499,10099 11499,10190 11499,10339 11433,10456 11300,10543 11168,10630 11003,10673 10804,10673 10572,10673 10386,10611 10246,10487 10105,10363 10035,10186 10035,9954 10035,9673 10144,9417 10364,9186 10583,8955 10887,8771 11276,8634 11664,8498 12094,8430 12566,8430 12739,8430 12955,8442 13211,8467 13889,7393 14607,6515 15363,5833 16120,5151 16842,4810 17528,4810 17925,4810 18252,4868 18508,4984 L 16561,14107 14774,14107 15729,9607 C 15423,9467 15142,9364 14886,9298 14629,9231 14356,9186 14067,9161 13596,10178 13209,11217 12907,12279 12605,13340 12454,14189 12454,14826 12454,15140 12512,15371 12628,15520 Z M 16561,5691 C 16205,5881 15835,6234 15450,6750 15066,7267 14691,7893 14327,8628 14923,8744 15428,8888 15841,9062 L 16561,5691 Z"/>
    </g>
   </g>
   <g class="com.sun.star.drawing.ClosedBezierShape">
    <g id="id7">
     <rect class="BoundingBox" stroke="none" fill="none" x="17918" y="10254" width="3295" height="3855"/>
     <path fill="rgb(103,27,103)" stroke="none" d="M 18736,10255 L 19847,10255 19746,10732 C 19921,10578 20079,10460 20221,10378 20362,10296 20515,10255 20679,10255 20844,10255 20974,10311 21069,10424 21164,10537 21211,10673 21211,10833 21211,10981 21163,11112 21065,11225 20967,11338 20831,11395 20656,11395 20543,11395 20467,11368 20429,11314 20390,11260 20361,11182 20340,11079 20325,11012 20309,10963 20294,10933 20278,10902 20250,10886 20209,10886 20101,10886 20010,10908 19935,10952 19861,10996 19764,11071 19646,11179 L 19029,14107 17919,14107 18736,10255 Z"/>
    </g>
   </g>
   <g class="com.sun.star.drawing.ClosedBezierShape">
    <g id="id8">
     <rect class="BoundingBox" stroke="none" fill="none" x="21047" y="9037" width="2446" height="5118"/>
     <path fill="rgb(103,27,103)" stroke="none" d="M 21872,14154 C 21626,14154 21427,14077 21275,13922 21123,13768 21047,13537 21047,13229 21047,13101 21068,12934 21109,12728 L 21572,10563 21317,10563 21379,10255 21633,10255 21865,9192 23006,9038 22744,10255 23206,10255 23145,10563 22682,10563 22189,12875 C 22168,12952 22158,13034 22158,13121 22158,13224 22182,13297 22231,13341 22280,13384 22361,13406 22474,13406 22623,13406 22762,13343 22890,13217 23019,13092 23111,12929 23168,12728 L 23492,12728 C 23302,13283 23057,13659 22759,13857 22461,14055 22165,14154 21872,14154 Z"/>
    </g>
   </g>
   <g class="com.sun.star.drawing.ClosedBezierShape">
    <g id="id9">
     <rect class="BoundingBox" stroke="none" fill="none" x="23108" y="8612" width="2446" height="5542"/>
     <path fill="rgb(103,27,103)" stroke="none" d="M 24458,9838 C 24288,9838 24144,9779 24026,9661 23908,9542 23848,9399 23848,9229 23848,9060 23908,8914 24026,8794 24144,8673 24288,8613 24458,8613 24627,8613 24772,8673 24893,8794 25014,8914 25074,9060 25074,9229 25074,9399 25014,9542 24893,9661 24772,9779 24627,9838 24458,9838 Z M 23933,14153 C 23686,14153 23487,14076 23336,13921 23184,13767 23108,13536 23108,13228 23108,13100 23129,12933 23170,12727 L 23694,10254 24805,10254 24249,12874 C 24229,12951 24219,13033 24219,13120 24219,13223 24243,13296 24292,13340 24341,13383 24422,13405 24535,13405 24684,13405 24823,13342 24951,13216 25080,13091 25172,12927 25229,12727 L 25552,12727 C 25362,13282 25118,13658 24820,13856 24522,14054 24226,14153 23933,14153 Z"/>
    </g>
   </g>
   <g class="com.sun.star.drawing.ClosedBezierShape">
    <g id="id10">
     <rect class="BoundingBox" stroke="none" fill="none" x="24981" y="10014" width="2670" height="4140"/>
     <path fill="rgb(103,27,103)" stroke="none" d="M 26108,14153 C 25861,14153 25653,14105 25483,14010 25314,13915 25188,13792 25105,13640 25023,13489 24982,13331 24982,13166 24982,12997 25022,12849 25101,12723 25181,12597 25278,12506 25391,12450 25591,12090 25766,11727 25915,11359 26064,10992 26205,10595 26339,10169 L 27480,10015 C 27506,10672 27550,11384 27611,12149 27637,12457 27650,12681 27650,12819 27650,13133 27570,13390 27411,13590 27251,13790 27055,13934 26821,14022 26587,14109 26349,14153 26108,14153 Z M 25861,13544 C 26051,13544 26211,13487 26339,13374 26468,13261 26532,13079 26532,12827 26532,12673 26516,12457 26486,12180 26434,11594 26401,11201 26385,11001 26262,11407 26054,11892 25761,12457 25879,12519 25938,12609 25938,12727 25938,12824 25906,12912 25842,12989 25777,13066 25696,13104 25599,13104 25491,13104 25421,13071 25391,13004 25391,13189 25428,13325 25502,13413 25577,13500 25696,13544 25861,13544 Z"/>
    </g>
   </g>
  </g>
 </g>
</svg>