<?xml version="1.0" encoding="UTF-8"?>
<!DOCTYPE svg PUBLIC "-//W3C//DTD SVG 1.1//EN" "http://www.w3.org/Graphics/SVG/1.1/DTD/svg11.dtd">
<svg version="1.2" width="253.81mm" height="107.1mm" viewBox="2270 4810 25381 10710" preserveAspectRatio="xMidYMid" fill-rule="evenodd" stroke-width="28.222" stroke-linejoin="round" xmlns="http://www.w3.org/2000/svg" xmlns:ooo="http://xml.openoffice.org/svg/export" xmlns:xlink="http://www.w3.org/1999/xlink" xmlns:presentation="http://sun.com/xmlns/staroffice/presentation" xmlns:smil="http://www.w3.org/2001/SMIL20/" xmlns:anim="urn:oasis:names:tc:opendocument:xmlns:animation:1.0" xml:space="preserve">
 <defs class="EmbeddedBulletChars">
  <g id="bullet-char-template-57356" transform="scale(0.00048828125,-0.00048828125)">
   <path d="M 580,1141 L 1163,571 580,0 -4,571 580,1141 Z"/>
  </g>
  <g id="bullet-char-template-57354" transform="scale(0.00048828125,-0.00048828125)">
   <path d="M 8,1128 L 1137,1128 1137,0 8,0 8,1128 Z"/>
  </g>
  <g id="bullet-char-template-10146" transform="scale(0.00048828125,-0.00048828125)">
   <path d="M 174,0 L 602,739 174,1481 1456,739 174,0 Z M 1358,739 L 309,1346 659,739 1358,739 Z"/>
  </g>
  <g id="bullet-char-template-10132" transform="scale(0.00048828125,-0.00048828125)">
   <path d="M 2015,739 L 1276,0 717,0 1260,543 174,543 174,936 1260,936 717,1481 1274,1481 2015,739 Z"/>
  </g>
  <g id="bullet-char-template-10007" transform="scale(0.00048828125,-0.00048828125)">
   <path d="M 0,-2 C -7,14 -16,27 -25,37 L 356,567 C 262,823 215,952 215,954 215,979 228,992 255,992 264,992 276,990 289,987 310,991 331,999 354,1012 L 381,999 492,748 772,1049 836,1024 860,1049 C 881,1039 901,1025 922,1006 886,937 835,863 770,784 769,783 710,716 594,584 L 774,223 C 774,196 753,168 711,139 L 727,119 C 717,90 699,76 672,76 641,76 570,178 457,381 L 164,-76 C 142,-110 111,-127 72,-127 30,-127 9,-110 8,-76 1,-67 -2,-52 -2,-32 -2,-23 -1,-13 0,-2 Z"/>
  </g>
  <g id="bullet-char-template-10004" transform="scale(0.00048828125,-0.00048828125)">
   <path d="M 285,-33 C 182,-33 111,30 74,156 52,228 41,333 41,471 41,549 55,616 82,672 116,743 169,778 240,778 293,778 328,747 346,684 L 369,508 C 377,444 397,411 428,410 L 1163,1116 C 1174,1127 1196,1133 1229,1133 1271,1133 1292,1118 1292,1087 L 1292,965 C 1292,929 1282,901 1262,881 L 442,47 C 390,-6 338,-33 285,-33 Z"/>
  </g>
  <g id="bullet-char-template-9679" transform="scale(0.00048828125,-0.00048828125)">
   <path d="M 813,0 C 632,0 489,54 383,161 276,268 223,411 223,592 223,773 276,916 383,1023 489,1130 632,1184 813,1184 992,1184 1136,1130 1245,1023 1353,916 1407,772 1407,592 1407,412 1353,268 1245,161 1136,54 992,0 813,0 Z"/>
  </g>
  <g id="bullet-char-template-8226" transform="scale(0.00048828125,-0.00048828125)">
   <path d="M 346,457 C 273,457 209,483 155,535 101,586 74,649 74,723 74,796 101,859 155,911 209,963 273,989 346,989 419,989 480,963 531,910 582,859 608,796 608,723 608,648 583,586 532,535 482,483 420,457 346,457 Z"/>
  </g>
  <g id="bullet-char-template-8211" transform="scale(0.00048828125,-0.00048828125)">
   <path d="M -4,459 L 1135,459 1135,606 -4,606 -4,459 Z"/>
  </g>
  <g id="bullet-char-template-61548" transform="scale(0.00048828125,-0.00048828125)">
   <path d="M 173,740 C 173,903 231,1043 346,1159 462,1274 601,1332 765,1332 928,1332 1067,1274 1183,1159 1299,1043 1357,903 1357,740 1357,577 1299,437 1183,322 1067,206 928,148 765,148 601,148 462,206 346,322 231,437 173,577 173,740 Z"/>
  </g>
 </defs>
 <g class="Page">
  <g class="Group">
   <g class="com.sun.star.drawing.ClosedBezierShape">
    <g id="id3">
     <rect class="BoundingBox" stroke="none" fill="none" x="2270" y="4811" width="3147" height="4054"/>
     <path fill="rgb(28,99,54)" stroke="none" d="M 3218,8864 C 2920,8864 2688,8788 2521,8637 2354,8485 2270,8258 2270,7955 2270,7831 2283,7708 2309,7585 L 2864,4965 3974,4965 3419,7585 C 3393,7713 3380,7806 3380,7862 3380,8032 3468,8116 3643,8116 3879,8116 4099,7967 4302,7670 4505,7372 4668,7017 4791,6606 4915,6195 4976,5841 4976,5543 4966,5569 4933,5588 4876,5601 4820,5614 4771,5620 4730,5620 4642,5620 4574,5579 4525,5497 4477,5415 4452,5325 4452,5227 4452,5104 4492,5004 4572,4927 4651,4850 4771,4811 4930,4811 5100,4811 5223,4874 5300,5000 5377,5126 5416,5286 5416,5481 5416,5944 5336,6438 5177,6965 5018,7491 4773,7939 4444,8309 4115,8679 3707,8864 3218,8864 Z"/>
    </g>
   </g>
   <g class="com.sun.star.drawing.ClosedBezierShape">
    <g id="id4">
     <rect class="BoundingBox" stroke="none" fill="none" x="5435" y="4896" width="3324" height="3968"/>
     <path fill="rgb(28,99,54)" stroke="none" d="M 6638,8863 C 6257,8863 5962,8765 5751,8567 5540,8369 5435,8060 5435,7639 5435,7284 5504,6894 5643,6468 5782,6041 6008,5673 6322,5362 6635,5051 7034,4896 7517,4896 8082,4896 8365,5143 8365,5636 8365,5923 8283,6188 8118,6429 7954,6670 7735,6864 7463,7011 7190,7157 6900,7240 6592,7261 6581,7415 6576,7518 6576,7569 6576,7821 6620,7992 6707,8081 6795,8171 6936,8216 7131,8216 7409,8216 7647,8152 7845,8024 8043,7895 8260,7700 8496,7438 L 8758,7438 C 8188,8388 7481,8863 6638,8863 Z M 6653,6891 C 6844,6881 7025,6814 7197,6691 7369,6568 7508,6411 7613,6221 7719,6031 7771,5831 7771,5620 7771,5410 7707,5304 7579,5304 7394,5304 7212,5466 7035,5790 6858,6113 6730,6480 6653,6891 Z"/>
    </g>
   </g>
   <g class="com.sun.star.drawing.ClosedBezierShape">
    <g id="id5">
     <rect class="BoundingBox" stroke="none" fill="none" x="8203" y="4965" width="3294" height="3853"/>
     <path fill="rgb(28,99,54)" stroke="none" d="M 9021,4965 L 10132,4965 10031,5443 C 10206,5289 10364,5171 10506,5088 10647,5006 10800,4965 10964,4965 11129,4965 11259,5022 11354,5135 11449,5248 11496,5384 11496,5543 11496,5692 11448,5823 11350,5936 11252,6049 11116,6105 10941,6105 10828,6105 10752,6078 10714,6025 10675,5971 10646,5892 10625,5790 10610,5723 10594,5674 10579,5643 10563,5612 10535,5597 10494,5597 10386,5597 10295,5619 10220,5662 10146,5706 10049,5782 9931,5890 L 9314,8817 8204,8817 9021,4965 Z"/>
    </g>
   </g>
  </g>
  <g class="Group">
   <g class="com.sun.star.drawing.ClosedBezierShape">
    <g id="id6">
     <rect class="BoundingBox" stroke="none" fill="none" x="10035" y="4810" width="8475" height="10710"/>
     <path fill="rgb(113,12,54)" stroke="none" d="M 12628,15519 C 12322,15519 12053,15494 11821,15445 11590,15395 11389,15276 11220,15085 11050,14895 10965,14602 10965,14205 10965,13652 11133,12908 11468,11974 11803,11041 12243,10103 12789,9161 12376,9185 12049,9247 11809,9347 11569,9446 11412,9599 11338,9805 11371,9805 11406,9847 11443,9929 11480,10012 11499,10099 11499,10189 11499,10338 11433,10456 11300,10543 11168,10630 11003,10673 10804,10673 10573,10673 10387,10611 10246,10487 10105,10363 10035,10185 10035,9954 10035,9673 10145,9417 10364,9185 10583,8954 10887,8770 11276,8634 11664,8498 12094,8429 12566,8429 12740,8429 12955,8442 13211,8467 13889,7392 14607,6514 15364,5833 16120,5151 16842,4810 17528,4810 17925,4810 18252,4868 18509,4984 L 16561,14106 14774,14106 15730,9607 C 15423,9466 15142,9363 14886,9297 14629,9231 14357,9185 14067,9161 13596,10177 13209,11216 12907,12278 12605,13340 12454,14189 12454,14825 12454,15139 12512,15371 12628,15519 Z M 16561,5690 C 16205,5880 15835,6233 15450,6750 15066,7266 14692,7892 14328,8628 14923,8743 15428,8888 15841,9062 L 16561,5690 Z"/>
    </g>
   </g>
   <g class="com.sun.star.drawing.ClosedBezierShape">
    <g id="id7">
     <rect class="BoundingBox" stroke="none" fill="none" x="17918" y="10255" width="3294" height="3853"/>
     <path fill="rgb(113,12,54)" stroke="none" d="M 18736,10255 L 19847,10255 19746,10733 C 19921,10579 20079,10461 20221,10378 20362,10296 20515,10255 20679,10255 20844,10255 20974,10312 21069,10425 21164,10538 21211,10674 21211,10833 21211,10982 21163,11113 21065,11226 20967,11339 20831,11395 20656,11395 20543,11395 20467,11368 20429,11315 20390,11261 20361,11182 20340,11080 20325,11013 20309,10964 20294,10933 20278,10902 20250,10887 20209,10887 20101,10887 20010,10909 19935,10952 19861,10996 19764,11072 19646,11180 L 19029,14107 17919,14107 18736,10255 Z"/>
    </g>
   </g>
   <g class="com.sun.star.drawing.ClosedBezierShape">
    <g id="id8">
     <rect class="BoundingBox" stroke="none" fill="none" x="21047" y="9037" width="2445" height="5118"/>
     <path fill="rgb(113,12,54)" stroke="none" d="M 21872,14154 C 21625,14154 21426,14077 21274,13923 21123,13769 21047,13538 21047,13229 21047,13101 21068,12934 21109,12729 L 21571,10564 21317,10564 21379,10255 21633,10255 21864,9192 23006,9038 22743,10255 23206,10255 23144,10564 22682,10564 22188,12875 C 22168,12952 22157,13034 22157,13122 22157,13224 22182,13297 22231,13341 22279,13385 22360,13407 22473,13407 22623,13407 22761,13344 22890,13218 23018,13092 23111,12929 23167,12729 L 23491,12729 C 23301,13283 23057,13660 22759,13857 22461,14055 22165,14154 21872,14154 Z"/>
    </g>
   </g>
   <g class="com.sun.star.drawing.ClosedBezierShape">
    <g id="id9">
     <rect class="BoundingBox" stroke="none" fill="none" x="23108" y="8613" width="2445" height="5541"/>
     <path fill="rgb(113,12,54)" stroke="none" d="M 24457,9838 C 24288,9838 24144,9779 24026,9661 23907,9543 23848,9399 23848,9229 23848,9060 23907,8915 24026,8794 24144,8673 24288,8613 24457,8613 24627,8613 24772,8673 24893,8794 25014,8915 25074,9060 25074,9229 25074,9399 25014,9543 24893,9661 24772,9779 24627,9838 24457,9838 Z M 23933,14153 C 23686,14153 23487,14076 23335,13922 23184,13768 23108,13537 23108,13228 23108,13100 23129,12933 23170,12728 L 23694,10254 24804,10254 24249,12874 C 24229,12951 24218,13033 24218,13120 24218,13223 24243,13296 24292,13340 24340,13384 24421,13406 24534,13406 24684,13406 24822,13343 24951,13217 25079,13091 25172,12928 25228,12728 L 25552,12728 C 25362,13282 25118,13659 24820,13856 24522,14054 24226,14153 23933,14153 Z"/>
    </g>
   </g>
   <g class="com.sun.star.drawing.ClosedBezierShape">
    <g id="id10">
     <rect class="BoundingBox" stroke="none" fill="none" x="24982" y="10015" width="2669" height="4139"/>
     <path fill="rgb(113,12,54)" stroke="none" d="M 26108,14153 C 25861,14153 25653,14106 25483,14010 25314,13915 25188,13792 25105,13641 25023,13489 24982,13331 24982,13167 24982,12997 25022,12849 25102,12724 25181,12598 25278,12507 25391,12450 25591,12090 25766,11727 25915,11360 26064,10992 26205,10595 26339,10169 L 27480,10015 C 27506,10673 27550,11384 27611,12150 27637,12458 27650,12681 27650,12820 27650,13133 27570,13390 27411,13590 27252,13791 27055,13935 26821,14022 26587,14109 26349,14153 26108,14153 Z M 25861,13544 C 26051,13544 26211,13488 26339,13375 26468,13262 26532,13079 26532,12828 26532,12674 26516,12458 26486,12180 26434,11595 26401,11202 26385,11001 26262,11407 26054,11892 25761,12457 25879,12519 25938,12609 25938,12727 25938,12825 25906,12912 25842,12989 25778,13066 25697,13105 25599,13105 25491,13105 25422,13071 25391,13005 25391,13190 25428,13326 25502,13413 25577,13501 25697,13544 25861,13544 Z"/>
    </g>
   </g>
  </g>
 </g>
</svg>